<?xml version="1.0" encoding="iso-8859-1"?>
<!-- Generator: Adobe Illustrator 16.0.0, SVG Export Plug-In . SVG Version: 6.00 Build 0)  -->
<!DOCTYPE svg PUBLIC "-//W3C//DTD SVG 1.1//EN" "http://www.w3.org/Graphics/SVG/1.1/DTD/svg11.dtd">
<svg version="1.1" id="Capa_1" xmlns="http://www.w3.org/2000/svg" xmlns:xlink="http://www.w3.org/1999/xlink" x="0px" y="0px"
	 width="503.808px" height="503.807px" viewBox="0 0 503.808 503.807" style="enable-background:new 0 0 503.808 503.807;"
	 xml:space="preserve">
<g>
	<g>
		<g>
			<g>
				<path d="M160.398,239.132c0,1.665,0.299,3.076,0.896,4.234c0.597,1.157,1.39,2.092,2.38,2.809
					c0.977,0.717,2.127,1.251,3.434,1.598c1.312,0.347,2.696,0.519,4.162,0.519c0.96,0,1.994-0.083,3.098-0.244
					c1.101-0.164,2.133-0.474,3.099-0.935c0.962-0.464,1.769-1.102,2.403-1.911c0.643-0.809,0.968-1.836,0.968-3.089
					c0-1.343-0.431-2.43-1.274-3.262c-0.849-0.829-1.961-1.538-3.336-2.118c-1.377-0.576-2.938-1.064-4.677-1.457
					c-1.746-0.394-3.513-0.844-5.301-1.354c-1.837-0.462-3.624-1.03-5.37-1.701c-1.743-0.668-3.3-1.535-4.677-2.603
					c-1.378-1.062-2.487-2.383-3.337-3.953c-0.846-1.572-1.273-3.518-1.273-5.833c0-2.548,0.539-4.754,1.615-6.63
					c1.078-1.874,2.49-3.434,4.237-4.685c1.739-1.251,3.711-2.175,5.915-2.778c2.201-0.599,4.404-0.9,6.604-0.9
					c2.564,0,5.035,0.286,7.398,0.866c2.365,0.58,4.462,1.515,6.292,2.812c1.839,1.296,3.294,2.952,4.372,4.963
					c1.078,2.011,1.617,4.455,1.617,7.321h-10.456c-0.098-1.478-0.402-2.706-0.936-3.678c-0.528-0.973-1.223-1.735-2.098-2.29
					c-0.871-0.557-1.879-0.95-3.025-1.179c-1.145-0.232-2.365-0.347-3.643-0.347c-0.874,0-1.749,0.091-2.62,0.275
					c-0.87,0.187-1.662,0.511-2.369,0.97c-0.716,0.465-1.3,1.056-1.754,1.773c-0.462,0.717-0.688,1.586-0.688,2.602
					c0,0.969,0.181,1.759,0.545,2.36c0.369,0.6,1.089,1.146,2.169,1.633c1.078,0.484,2.573,0.995,4.476,1.526
					c1.901,0.534,4.389,1.193,7.461,1.979c0.598,0.138,1.377,0.333,2.339,0.585c0.966,0.258,1.988,0.605,3.067,1.044
					c1.076,0.442,2.148,1.007,3.234,1.702c1.07,0.694,2.059,1.55,2.954,2.568c0.894,1.018,1.617,2.232,2.167,3.644
					c0.555,1.415,0.827,3.044,0.827,4.894c0,2.268-0.436,4.373-1.306,6.318c-0.877,1.945-2.171,3.621-3.89,5.032
					c-1.721,1.414-3.853,2.523-6.397,3.332c-2.548,0.811-5.494,1.217-8.838,1.217c-2.711,0-5.334-0.35-7.88-1.045
					c-2.548-0.692-4.788-1.756-6.71-3.188c-1.927-1.438-3.475-3.265-4.645-5.484c-1.167-2.22-1.732-4.856-1.688-7.909
					L160.398,239.132L160.398,239.132z"/>
			</g>
			<g>
				<path d="M194.246,206.02h15.212l11.488,34.085h0.139l10.871-34.085h15.202v49.561h-10.112v-35.123h-0.135l-12.041,35.123h-8.327
					L204.5,220.804h-0.134v34.775h-10.12V206.02L194.246,206.02z"/>
			</g>
			<g>
				<path d="M266.632,206.02h11.079l18.366,49.561h-11.216l-3.715-11.032h-18.365l-3.857,11.032h-10.938L266.632,206.02z
					 M265.599,236.425h12.729l-6.188-18.186h-0.146L265.599,236.425z"/>
			</g>
			<g>
				<path d="M304.267,239.132c0,1.665,0.3,3.076,0.896,4.234c0.599,1.157,1.391,2.092,2.376,2.809
					c0.984,0.717,2.124,1.251,3.439,1.598c1.297,0.347,2.688,0.519,4.153,0.519c0.965,0,1.997-0.083,3.1-0.244
					c1.104-0.164,2.135-0.474,3.104-0.935c0.964-0.464,1.769-1.102,2.408-1.911c0.646-0.809,0.965-1.836,0.965-3.089
					c0-1.343-0.426-2.43-1.271-3.262c-0.86-0.829-1.962-1.538-3.343-2.118c-1.377-0.576-2.938-1.064-4.684-1.457
					c-1.745-0.394-3.5-0.844-5.304-1.354c-1.823-0.462-3.614-1.03-5.357-1.701c-1.739-0.668-3.301-1.535-4.678-2.603
					c-1.379-1.062-2.496-2.383-3.339-3.953c-0.854-1.572-1.272-3.518-1.272-5.833c0-2.548,0.539-4.754,1.616-6.63
					c1.078-1.874,2.486-3.434,4.229-4.685c1.748-1.251,3.719-2.175,5.923-2.778c2.189-0.599,4.396-0.9,6.6-0.9
					c2.569,0,5.037,0.286,7.402,0.866c2.363,0.58,4.464,1.515,6.3,2.812c1.826,1.296,3.282,2.952,4.361,4.963
					c1.08,2.011,1.619,4.455,1.619,7.321h-10.456c-0.093-1.478-0.4-2.706-0.931-3.678c-0.525-0.973-1.231-1.735-2.104-2.29
					c-0.872-0.557-1.884-0.95-3.03-1.179c-1.146-0.232-2.363-0.347-3.647-0.347c-0.87,0-1.73,0.091-2.604,0.275
					c-0.885,0.187-1.665,0.511-2.376,0.97c-0.723,0.465-1.311,1.056-1.756,1.773c-0.458,0.717-0.688,1.586-0.688,2.602
					c0,0.969,0.186,1.759,0.555,2.36c0.363,0.6,1.076,1.146,2.154,1.633c1.078,0.484,2.568,0.995,4.478,1.526
					c1.904,0.534,4.396,1.193,7.466,1.979c0.604,0.138,1.387,0.333,2.351,0.585c0.965,0.258,1.983,0.605,3.054,1.044
					c1.077,0.442,2.156,1.007,3.234,1.702c1.077,0.694,2.064,1.55,2.96,2.568s1.618,2.232,2.169,3.644
					c0.555,1.415,0.828,3.044,0.828,4.894c0,2.268-0.438,4.373-1.312,6.318c-0.871,1.945-2.169,3.621-3.879,5.032
					c-1.723,1.414-3.866,2.523-6.414,3.332c-2.542,0.811-5.486,1.217-8.84,1.217c-2.707,0-5.325-0.35-7.872-1.045
					c-2.551-0.692-4.782-1.756-6.715-3.188c-1.921-1.438-3.474-3.265-4.645-5.484c-1.17-2.22-1.733-4.856-1.684-7.909
					L304.267,239.132L304.267,239.132z"/>
			</g>
			<g>
				<path d="M338.123,206.02h10.799v19.02h19.891v-19.02h10.797v49.561h-10.797v-21.378h-19.891v21.378h-10.799V206.02z"/>
			</g>
			<g>
				<path d="M385.667,206.02h10.8v49.561h-10.8V206.02z"/>
			</g>
			<g>
				<path d="M402.511,206.02h10.74l20.509,33.25h0.127v-33.25h10.122v49.561h-10.812l-20.429-33.177h-0.14v33.177h-10.12
					L402.511,206.02L402.511,206.02z"/>
			</g>
		</g>
		<g>
			<path d="M484.976,244.845c0.444-0.551,0.985-1.65,0.985-1.65l-2.788,0.577c-2.662-1.579-8.239-5.147-8.239-5.147l-1.31-0.795
				l2.262-0.441c0,0,17.926-3.121,27.922-4.863c-1.562,9.886-2.997,18.978-4.706,29.77c-2.362-2.983-6.188-7.791-6.188-7.791
				l0.194-3.136l-1.596,1.368c-8.044,5.871-17.661,8.217-28.095,3.908c-6.666-2.757-11.279-7.715-13.966-14.362
				c-5.521-13.633,1.104-28.947,14.779-34.426c12.359-4.952,27.357,0.49,32.062,11.748c-2.775,1.618-8.391,3.921-8.391,3.921
				s-2.604-3.347-4.325-4.782c-7.239-6.025-17.567-4.143-23.316,3.236c-5.602,7.184-4.485,17.818,2.361,23.66
				C468.106,250.297,479.054,252.591,484.976,244.845z"/>
		</g>
		<g>
			<path d="M155.978,267.973h4.252l10.496,26.604l10.453-26.604h4.254v30.349h-2.893v-26.226h-0.083l-10.37,26.226h-2.72
				l-10.414-26.226h-0.087v26.226h-2.888V267.973z"/>
			<path d="M218.156,267.973h3.231l11.9,30.349h-3.102l-3.697-9.437h-13.814l-3.653,9.437h-3.105L218.156,267.973z M213.567,286.422
				h11.944l-5.864-15.557L213.567,286.422z"/>
			<path d="M279.789,298.321h-2.084l-0.382-5.523h-0.085c-0.513,1.078-1.144,2.004-1.892,2.78c-0.753,0.781-1.582,1.417-2.488,1.914
				c-0.905,0.497-1.876,0.864-2.911,1.104s-2.104,0.361-3.207,0.361c-2.382,0-4.471-0.433-6.271-1.299
				c-1.801-0.861-3.294-2.023-4.484-3.48c-1.188-1.461-2.083-3.146-2.678-5.061c-0.594-1.914-0.893-3.902-0.893-5.974
				c0-2.068,0.299-4.062,0.893-5.972c0.595-1.914,1.487-3.603,2.678-5.06c1.19-1.46,2.688-2.622,4.484-3.485
				c1.802-0.861,3.891-1.295,6.271-1.295c1.586,0,3.087,0.211,4.506,0.637c1.416,0.426,2.687,1.062,3.806,1.912
				c1.117,0.852,2.053,1.905,2.807,3.166c0.747,1.265,1.268,2.713,1.548,4.356h-2.889c-0.087-0.878-0.376-1.765-0.871-2.655
				c-0.499-0.894-1.163-1.707-1.998-2.445c-0.835-0.731-1.835-1.336-2.994-1.803c-1.162-0.47-2.467-0.703-3.91-0.703
				c-2.015,0-3.739,0.381-5.188,1.146c-1.444,0.767-2.627,1.778-3.55,3.038c-0.921,1.263-1.603,2.693-2.037,4.295
				c-0.438,1.602-0.661,3.223-0.661,4.864c0,1.674,0.223,3.303,0.661,4.89s1.116,3.01,2.037,4.271
				c0.923,1.263,2.104,2.272,3.55,3.039c1.445,0.769,3.174,1.146,5.188,1.146c1.669,0,3.165-0.275,4.482-0.83
				c1.315-0.554,2.429-1.324,3.338-2.312c0.904-0.992,1.586-2.17,2.038-3.527c0.454-1.357,0.666-2.852,0.64-4.465h-10.328v-2.465
				h12.878L279.789,298.321L279.789,298.321z"/>
			<path d="M312.045,267.973h3.227l11.912,30.349h-3.109l-3.693-9.437h-13.814l-3.65,9.437h-3.104L312.045,267.973z
				 M307.455,286.422h11.946l-5.865-15.557L307.455,286.422z"/>
			<path d="M346.259,267.973h21.849v2.552l-19.979,25.333h20.402v2.464h-23.634v-2.55l19.979-25.333H346.26L346.259,267.973
				L346.259,267.973z"/>
			<path d="M390.166,267.973h2.894v30.349h-2.894V267.973z"/>
			<path d="M417.148,267.973h3.229l17.68,25.673h0.087v-25.673h2.893v30.349h-3.229l-17.686-25.671h-0.079v25.671h-2.896
				L417.148,267.973L417.148,267.973z"/>
			<path d="M464.922,267.973h20.955v2.466h-18.063v10.968h16.913v2.465h-16.913v11.986h18.272v2.464h-21.168L464.922,267.973
				L464.922,267.973z"/>
		</g>
		<g>
			<g>
				<path d="M77.376,270.978c-2.384-2.144-5.282-3.853-8.195-5.235c-6.99-3.32-14.18-6.212-21.18-9.497
					c-19.453-9.125-31.895-29.858-17.743-54.571l-20.719,4.723c-6.604,1.505-10.734,8.078-9.229,14.682l19.804,86.906
					c1.507,6.604,8.077,10.737,14.691,9.233l8.629-1.973c0-0.049,0.006-0.095,0-0.143c-5.699-2.531-11.059-4.912-16.813-7.469
					c3.39-8.056,6.599-15.672,9.995-23.75c2.157,1.289,3.675,2.246,5.24,3.125c9.165,5.125,18.876,7.513,29.384,5.752
					c4.872-0.812,9.066-2.592,10.455-7.961C83.111,279.324,81.415,274.616,77.376,270.978z"/>
			</g>
			<g>
				<path d="M96.446,186.59l-12.363,2.817c0.008,0.006,0.008,0.011,0.008,0.011c6.019,1.957,11.224,3.491,16.225,5.488
					c1.326,0.531,4.415,1.763,4.415,1.763s-6.143,15.931-8.746,23.49c-9.827-7.85-19.116-9.976-29.832-8.396
					c-4.599,0.684-9.085,3.819-10.432,8.599c-1.407,5.009,0.34,8.928,4.517,11.63c3.068,1.98,6.371,3.672,9.723,5.127
					c6.547,2.84,13.32,5.178,19.795,8.171c15.945,7.361,24.168,19.724,22.739,37.542c-0.41,5.154-1.926,11.271-3.283,17.29
					c0.035,0.041,0.062,0.075,0.087,0.112l12.405-2.829c6.604-1.504,10.734-8.078,9.235-14.681l-19.811-86.904
					C109.62,189.217,103.049,185.084,96.446,186.59z"/>
			</g>
		</g>
	</g>
</g>
<g>
</g>
<g>
</g>
<g>
</g>
<g>
</g>
<g>
</g>
<g>
</g>
<g>
</g>
<g>
</g>
<g>
</g>
<g>
</g>
<g>
</g>
<g>
</g>
<g>
</g>
<g>
</g>
<g>
</g>
</svg>
